IKResults
version=1
nRows=14
nColumns=40
inDegrees=yes

Units are S.I. units (second, meters, Newtons, ...)
Angles are in degrees.

endheader
time	pelvis_tilt	pelvis_list	pelvis_rotation	pelvis_tx	pelvis_ty	pelvis_tz	hip_flexion_r	hip_adduction_r	hip_rotation_r	knee_angle_r	knee_angle_r_beta	ankle_angle_r	subtalar_angle_r	mtp_angle_r	hip_flexion_l	hip_adduction_l	hip_rotation_l	knee_angle_l	knee_angle_l_beta	ankle_angle_l	subtalar_angle_l	mtp_angle_l	lumbar_extension	lumbar_bending	lumbar_rotation	arm_flex_r	arm_add_r	arm_rot_r	elbow_flex_r	pro_sup_r	wrist_flex_r	wrist_dev_r	arm_flex_l	arm_add_l	arm_rot_l	elbow_flex_l	pro_sup_l	wrist_flex_l	wrist_dev_l
      0.00000000	     15.73134433	     -0.04120740	      4.68435767	     -0.83565382	      0.96069594	      1.43873425	    -16.30560388	      3.80722762	    -18.14952711	    -11.72975241	     -0.20472280	      7.65113469	      2.30823677	      0.30459274	     -6.87856964	      0.35018353	     -1.55256329	    -47.52144582	     -0.82940569	     10.86394880	     18.54463208	     17.35264988	    -24.10490748	      0.94000558	      2.65134859	      2.28230489	    -10.15834416	     -0.68438878	     21.10447006	     89.95437384	      0.00000000	      0.00000000	      4.49363714	      9.33198254	      0.34124715	     24.50186132	     89.95437384	      0.00000000	      0.00000000
      0.01000000	     15.95578435	      0.22059033	      4.40080651	     -0.83060024	      0.96110761	      1.43971702	    -16.96985574	      3.56317541	    -17.98430929	    -11.61035134	     -0.20263886	      7.86135491	      2.65391853	      0.20445578	     -6.63040078	      0.08204154	     -1.29511169	    -46.10539007	     -0.80469086	     11.27461346	     18.61897066	     16.37358755	    -24.28841346	      0.56777920	      2.92035544	      2.62676215	    -10.15473935	     -0.75329613	     20.60839971	     89.95437384	      0.00000000	      0.00000000	      4.29589424	      9.34337215	      0.35660487	     23.95464376	     89.95437384	      0.00000000	      0.00000000
      0.02000000	     15.93746522	      0.43258248	      4.16192743	     -0.82600973	      0.96110339	      1.44070449	    -17.30424172	      3.43166112	    -17.39889686	    -11.51987627	     -0.20105977	      8.02473080	      1.94661874	      0.25229824	     -6.01448827	     -0.09486838	     -0.94606188	    -44.74452359	     -0.78093926	     11.62229332	     18.60295924	     15.41784743	    -24.30434001	      0.23862917	      3.20506298	      2.85949956	    -10.15945628	     -0.90077335	     20.35737913	     89.95437384	      0.00000000	      0.00000000	      4.07638903	      9.40286788	      0.13775658	     23.59748678	     89.95437384	      0.00000000	      0.00000000
      0.03000000	     16.11430123	      0.61907387	      3.68291170	     -0.82118809	      0.96131940	      1.44193000	    -17.83898117	      3.20026365	    -16.86014791	    -11.50003425	     -0.20071346	      8.18509676	      1.96754792	      0.17533110	     -5.73772499	     -0.23036204	     -0.24964954	    -43.14971512	     -0.75310460	     11.82506033	     18.56202299	     14.40655705	    -24.47070400	     -0.13343452	      3.68915963	      3.04696488	    -10.20473054	     -0.95054908	     20.15719180	     89.95437384	      0.00000000	      0.00000000	      3.87906878	      9.32205266	      0.45558237	     23.12604529	     89.95437384	      0.00000000	      0.00000000
      0.04000000	     16.03331710	      0.86898611	      3.63617584	     -0.81660375	      0.96110801	      1.44252328	    -18.03052167	      2.96345507	    -16.99208412	    -11.61882761	     -0.20278680	      8.46934300	      2.12230217	      0.13505791	     -5.03909452	     -0.46586976	     -0.07452862	    -41.71366504	     -0.72804080	     12.13854436	     18.51677435	     14.32647310	    -24.41268394	     -0.43486877	      3.74567995	      3.26001979	    -10.18501416	     -1.11109904	     19.88115729	     89.95437384	      0.00000000	      0.00000000	      3.52206687	      9.39194120	      0.35544886	     22.99891752	     89.95437384	      0.00000000	      0.00000000
      0.05000000	     16.18127047	      1.04839208	      3.18592007	     -0.81175959	      0.96123936	      1.44369520	    -18.62045670	      2.80852018	    -16.09423915	    -11.40974392	     -0.19913760	      8.54617912	      1.34211330	      0.29764282	     -4.77940179	     -0.57471496	      0.71559997	    -39.92596942	     -0.69683962	     12.31249034	     18.37539891	     14.17004812	    -24.54339335	     -0.80865399	      4.21393727	      3.37147391	    -10.18021194	     -1.38179520	     19.73011039	     89.95437384	      0.00000000	      0.00000000	      3.19661955	      9.40875192	      0.28191000	     22.76766445	     89.95437384	      0.00000000	      0.00000000
      0.06000000	     16.07003296	      1.20196226	      2.98695379	     -0.80735985	      0.96094046	      1.44440833	    -18.80411691	      2.66408122	    -15.71260614	    -11.40415412	     -0.19904004	      8.67643960	      1.15687768	      0.38007853	     -4.08301819	     -0.68162233	      1.25480006	    -38.34339915	     -0.66921856	     12.35159679	     18.17773570	     13.78749863	    -24.48813777	     -1.06714231	      4.44830260	      3.49031779	    -10.20129423	     -1.57133668	     19.64738515	     89.95437384	      0.00000000	      0.00000000	      2.84562093	      9.43170905	      0.18478178	     22.69570506	     89.95437384	      0.00000000	      0.00000000
      0.07000000	     16.01970682	      1.40278947	      2.88922773	     -0.80309297	      0.96068261	      1.44486282	    -18.95845742	      2.39987190	    -15.95432689	    -11.61511206	     -0.20272195	      9.01920481	      1.69518308	      0.24122050	     -3.45334004	     -0.85355699	      1.67832607	    -36.72728506	     -0.64101205	     12.20989241	     17.90373769	     12.57259985	    -24.48045783	     -1.32392068	      4.52525044	      3.67930107	    -10.25765520	     -1.37537610	     19.43626944	     89.95437384	      0.00000000	      0.00000000	      2.53855424	      9.41511085	      0.20979346	     22.54159233	     89.95437384	      0.00000000	      0.00000000
      0.08000000	     16.00686421	      1.59329041	      2.67461888	     -0.79838411	      0.96047288	      1.44528959	    -19.21462905	      2.12812979	    -15.89350528	    -11.73871004	     -0.20487914	      9.32050632	      2.08068900	      0.08407577	     -2.96236101	     -1.04200581	      2.24450524	    -34.96783896	     -0.61030392	     11.85347631	     17.50088545	     11.21414739	    -24.48681603	     -1.58922683	      4.69262475	      3.68781629	    -10.35251412	     -1.19209974	     19.49239252	     89.95437384	      0.00000000	      0.00000000	      2.10212441	      9.36894961	      0.33574262	     22.47280516	     89.95437384	      0.00000000	      0.00000000
      0.09000000	     15.97643751	      1.86615769	      2.57663660	     -0.79378941	      0.96023717	      1.44549996	    -19.42095856	      1.79417267	    -16.08450818	    -11.91911061	     -0.20802772	      9.53859487	      2.16260026	      0.00599398	     -2.48267059	     -1.32705129	      2.71395434	    -33.15332182	     -0.57863462	     11.20218387	     16.88709837	     10.43345676	    -24.48286764	     -1.90943917	      4.76038514	      3.75624308	    -10.36736501	     -1.30483463	     19.39550218	     89.95437384	      0.00000000	      0.00000000	      1.65172172	      9.42321010	      0.00643859	     22.54429943	     89.95437384	      0.00000000	      0.00000000
      0.10000000	     15.90853433	      2.03881057	      2.47571469	     -0.78923040	      0.95992060	      1.44584806	    -19.61951985	      1.58630870	    -16.11997488	    -12.02787286	     -0.20992598	      9.76683349	      2.39483677	     -0.11011429	     -1.95229338	     -1.47596216	      3.26590206	    -31.36508738	     -0.54742404	     10.53829006	     16.08928178	      9.42513323	    -24.44081806	     -2.14217600	      4.85289545	      3.78250267	    -10.38919058	     -1.35333762	     19.37332546	     89.95437384	      0.00000000	      0.00000000	      1.23123652	      9.42668066	     -0.09731577	     22.53422807	     89.95437384	      0.00000000	      0.00000000
      0.11000000	     15.97139402	      2.27357437	      2.38878274	     -0.78443602	      0.95979168	      1.44622411	    -20.10410709	      1.39393800	    -15.97328324	    -11.87891173	     -0.20732612	      9.90174336	      2.18337046	     -0.09956552	     -1.63617787	     -1.65079826	      4.00522234	    -29.51026606	     -0.51505131	      9.73104844	     14.88993303	      8.85689400	    -24.52773399	     -2.44518047	      4.93910752	      3.80470271	    -10.40034089	     -1.27184374	     19.28492502	     89.95437384	      0.00000000	      0.00000000	      0.82950988	      9.45453819	     -0.26015871	     22.54689055	     89.95437384	      0.00000000	      0.00000000
      0.12000000	     15.89015906	      2.37496329	      2.26435953	     -0.77981385	      0.95929732	      1.44640633	    -20.30553430	      1.27394024	    -15.77294093	    -11.91854443	     -0.20801784	     10.06700143	      2.04456827	     -0.09102215	     -1.08509782	     -1.69709727	      4.91706700	    -27.86402792	     -0.48631903	      8.84004170	     13.54971715	      8.05811667	    -24.43402274	     -2.59424040	      5.04461668	      3.74839011	    -10.46462380	     -1.23894701	     19.38767965	     89.95437384	      0.00000000	      0.00000000	      0.39399714	      9.40013600	     -0.28239544	     22.51278741	     89.95437384	      0.00000000	      0.00000000
      0.13000000	     15.90189487	      2.54814291	      2.13795056	     -0.77500353	      0.95896826	      1.44662729	    -20.65425890	      1.08645966	    -15.66654662	    -11.92479685	     -0.20812697	     10.23824118	      1.95304017	     -0.07974435	     -0.69839879	     -1.79628236	      5.98197192	    -26.19136901	     -0.45712562	      7.84691186	     11.98327667	      7.26253810	    -24.46073030	     -2.83304739	      5.14973189	      3.66894601	    -10.51249017	     -1.18654154	     19.47942651	     89.95437384	      0.00000000	      0.00000000	     -0.09816976	      9.40443949	     -0.50600843	     22.59812444	     89.95437384	      0.00000000	      0.00000000
